<?xml version="1.0" encoding="UTF-8"?>
<svg id="Layer_1" xmlns="http://www.w3.org/2000/svg" version="1.1" viewBox="0 0 31.9 32">
  <!-- Generator: Adobe Illustrator 29.5.0, SVG Export Plug-In . SVG Version: 2.1.0 Build 137)  -->
  <g>
    <polygon points="31.9 4.5 31.9 25.4 21.2 27.5 21.2 6.6 31.9 4.5" fill="#ffe2ab"/>
    <polygon points="31.9 18.4 31.9 19.3 23.4 20.2 22.5 20.3 21.2 20.4 21.2 19.5 22.3 19.4 23.3 19.3 31.9 18.4" fill="#61483e"/>
    <polygon points="23.4 20.2 24.9 26.8 24 27 22.5 20.3 22.3 19.4 21.4 15.5 24.4 5.9 25.3 5.8 22.4 15.3 23.3 19.3 23.4 20.2" fill="#9a6849"/>
    <g>
      <polygon points="26.1 14 25 14.2 25 14.5 26.1 14.2 26.1 14" fill="#9a6849"/>
      <polygon points="27.2 14.3 25.9 14.6 25.9 14.9 27.2 14.6 27.2 14.3" fill="#9a6849"/>
      <polygon points="24.8 16.9 26.1 16.7 26.1 16.4 24.8 16.6 24.8 16.9" fill="#9a6849"/>
      <polygon points="24.7 18.3 26 18 26 17.7 24.7 18 24.7 18.3" fill="#9a6849"/>
      <polygon points="27.1 15.6 25.8 15.8 25.8 16.1 27.1 15.9 27.1 15.6" fill="#9a6849"/>
      <polygon points="25.9 17.3 27.2 17.1 27.2 16.8 25.9 17 25.9 17.3" fill="#9a6849"/>
      <polygon points="25.4 14.7 24.1 15 24.1 15.2 25.4 15 25.4 14.7" fill="#9a6849"/>
      <polygon points="27.7 14.2 27.7 14.5 29.1 14.3 29.1 14 27.7 14.2" fill="#9a6849"/>
      <polygon points="28.3 13.5 27 13.8 27 14.1 28.3 13.8 28.3 13.5" fill="#9a6849"/>
      <polygon points="24.9 15.7 26.1 15.4 26.1 15.2 24.9 15.4 24.9 15.7" fill="#9a6849"/>
      <polygon points="25 17.2 23.9 17.4 23.9 17.7 25 17.5 25 17.2" fill="#9a6849"/>
      <polygon points="25 16 23.9 16.2 23.9 16.5 25 16.3 25 16" fill="#9a6849"/>
      <polygon points="26.9 15.3 28.2 15 28.2 14.7 26.9 15 26.9 15.3" fill="#9a6849"/>
    </g>
    <g>
      <path d="M27.3,22c0-.2.1-.4.1-.5,0,0,0,0,0,0,0-.2,0-.3,0-.4,0,0-.1-.2-.2-.2-.2-.1-.4-.2-.6-.1-.2,0-.4.2-.6.3,0,0-.2.2-.2.3,0,.1-.1.3-.1.5,0,0,0,0,0,0,0,.1,0,.3.1.5.1.3.3.6.4.9h0c.2.3.3.5.3.5,0,0,.2-.3.4-.6h0c.2-.3.4-.7.5-1ZM26.5,22.2c-.3,0-.6-.2-.5-.5,0,0,0,0,0-.1,0,0,0,0,0,0,0-.2.3-.4.5-.5.2,0,.4,0,.5.3,0,0,0,0,0,0,0,0,0,0,0,.1,0,.3-.3.6-.6.7Z" fill="#61483e"/>
      <path d="M27.3,22c0-.2.1-.4.1-.5,0,0,0,0,0,0,0-.2,0-.3,0-.4,0,0-.1-.2-.2-.2-.2-.1-.4-.2-.6-.1-.2,0-.4.2-.6.3,0,0-.2.2-.2.3,0,.1-.1.3-.1.5,0,0,0,0,0,0,0,.1,0,.3.1.5.1.3.3.6.4.9h0c.2.3.3.5.3.5,0,0,.2-.3.4-.6h0c.2-.3.4-.7.5-1ZM26.5,22.2c-.3,0-.6-.2-.5-.5,0,0,0,0,0-.1,0,0,0,0,0,0,0-.2.3-.4.5-.5.2,0,.4,0,.5.3,0,0,0,0,0,0,0,0,0,0,0,.1,0,.3-.3.6-.6.7Z" fill="#61483e"/>
    </g>
    <polygon points="31.9 9.2 31.9 9.4 31.8 9.6 28.4 9.7 23.9 10.2 23 10.3 22.1 10.4 21.2 11.1 21.2 10.7 22.1 10.1 22.1 10.1 23.1 10 24 9.9 28.4 9.4 31.9 9.2 31.9 9.2" fill="#9a6849"/>
    <path d="M21.2,6.6v1.3l9.3-1.8v18.3l-9.3,1.8v1.3l10.6-2.1V4.5l-10.6,2.1Z" fill="#e69f56"/>
  </g>
  <g>
    <polygon points="10.6 4.5 10.6 25.5 0 27.5 0 6.6 10.6 4.5" fill="#ffe2ab"/>
    <polygon points="8.2 16.2 10.6 14.8 10.6 15.8 8.9 16.8 6.2 25.4 5.3 25.3 8.2 16.2" fill="#61483e"/>
    <polygon points="9.3 10.9 10.6 11.8 10.6 13 8.9 11.8 4.1 12 3.6 12.1 3.6 12.1 0 12.2 0 11.3 4.7 11.1 5.2 11.1 9.3 10.9" fill="#61483e"/>
    <g>
      <polygon points="4.8 13.6 3.4 13.9 3.4 14.2 4.8 13.9 4.8 13.6" fill="#9a6849"/>
      <polygon points="6.1 14.1 4.5 14.4 4.5 14.7 6.1 14.4 6.1 14.1" fill="#9a6849"/>
      <polygon points="3.3 17.1 4.8 16.8 4.8 16.4 3.3 16.7 3.3 17.1" fill="#9a6849"/>
      <polygon points="3.1 18.6 4.6 18.3 4.6 18 3.1 18.3 3.1 18.6" fill="#9a6849"/>
      <polygon points="6 15.5 4.4 15.8 4.4 16.1 6 15.8 6 15.5" fill="#9a6849"/>
      <polygon points="4.5 17.6 6.1 17.3 6.1 16.9 4.5 17.2 4.5 17.6" fill="#9a6849"/>
      <polygon points="4 14.5 2.4 14.8 2.4 15.1 4 14.8 4 14.5" fill="#9a6849"/>
      <polygon points="6.7 13.9 6.7 14.3 8.2 14 8.2 13.6 6.7 13.9" fill="#9a6849"/>
      <polygon points="7.3 13.1 5.8 13.4 5.8 13.8 7.3 13.5 7.3 13.1" fill="#9a6849"/>
      <polygon points="3.3 15.6 4.7 15.3 4.7 15 3.3 15.3 3.3 15.6" fill="#9a6849"/>
      <polygon points="3.5 17.4 2.1 17.7 2.1 18 3.5 17.8 3.5 17.4" fill="#9a6849"/>
      <polygon points="3.5 16 2.1 16.2 2.1 16.6 3.5 16.3 3.5 16" fill="#9a6849"/>
      <polygon points="5.7 15.2 7.3 14.9 7.3 14.5 5.7 14.8 5.7 15.2" fill="#9a6849"/>
    </g>
    <g>
      <path d="M4.1,20.8c0-.2.1-.4.1-.5,0,0,0,0,0,0,0-.2,0-.3,0-.4,0,0-.1-.2-.2-.2-.2-.1-.4-.2-.6-.1-.2,0-.4.2-.6.3,0,0-.2.2-.2.3,0,.1-.1.3-.1.4,0,0,0,0,0,0,0,.1,0,.3.1.5.1.3.3.6.4.9h0c.2.3.3.5.3.5,0,0,.2-.3.4-.6h0c.2-.3.4-.7.5-1ZM3.2,21c-.3,0-.6-.2-.5-.5,0,0,0,0,0-.1,0,0,0,0,0,0,0-.2.3-.4.5-.5.2,0,.4,0,.5.3,0,0,0,0,0,0,0,0,0,0,0,.1,0,.3-.3.6-.6.7Z" fill="#61483e"/>
      <path d="M4.1,20.8c0-.2.1-.4.1-.5,0,0,0,0,0,0,0-.2,0-.3,0-.4,0,0-.1-.2-.2-.2-.2-.1-.4-.2-.6-.1-.2,0-.4.2-.6.3,0,0-.2.2-.2.3,0,.1-.1.3-.1.4,0,0,0,0,0,0,0,.1,0,.3.1.5.1.3.3.6.4.9h0c.2.3.3.5.3.5,0,0,.2-.3.4-.6h0c.2-.3.4-.7.5-1ZM3.2,21c-.3,0-.6-.2-.5-.5,0,0,0,0,0-.1,0,0,0,0,0,0,0-.2.3-.4.5-.5.2,0,.4,0,.5.3,0,0,0,0,0,0,0,0,0,0,0,.1,0,.3-.3.6-.6.7Z" fill="#61483e"/>
    </g>
    <polygon points="7.2 8.9 10.6 8.7 10.6 9 7.3 9.2 5.2 11.1 4.1 12 .9 14.9 .7 14.6 3.6 12.1 4.7 11.1 7.2 8.9" fill="#9a6849"/>
    <path d="M10.6,25.5v-1.3l-9.3,1.8V7.6l9.3-1.8v-1.3L0,6.6v21l10.6-2Z" fill="#e69f56"/>
  </g>
  <g>
    <polygon points="21.2 6.6 21.2 27.5 10.6 25.5 10.6 4.5 21.2 6.6" fill="#ffe2ab"/>
    <polygon points="12.8 15.3 10.6 15.8 10.6 14.8 12.1 14.5 12.8 15.3" fill="#61483e"/>
    <polygon points="17.6 11 17 12.3 16.9 12.6 16 14.7 13.8 15.2 12.8 15.3 12.1 14.5 13 14.4 15.3 13.9 16.2 11.8 16.3 11.5 16.7 10.7 15.7 5.5 16.6 5.7 17.6 11" fill="#61483e"/>
    <polygon points="13 14.4 12.1 14.5 10.6 13 10.6 11.8 13 14.4" fill="#61483e"/>
    <polygon points="21.2 19.5 21.2 20.4 16.4 19.1 12.8 15.3 12.1 14.5 13 14.4 13.8 15.2 16.7 18.3 21.2 19.5" fill="#61483e"/>
    <polygon points="21.2 27.5 10.6 25.5 10.6 24.1 21.2 26.2 21.2 27.5" fill="#f0a65b"/>
    <path d="M19.2,25.2h.4c0,0-2.5-3.3-2.5-3.3l-1.2,1.2-1-1.4h.5c0,0,0,0,0,0h-.5c0,0,.2-.3.2-.3h.5c0,0,0,0,0,0h-.4c0,0,.2-.3.2-.3h.5c0,0,0,0,0,0h-.4c0,0,.1-.2.1-.2h.4c0,0,0,0,0,0h-.3c0,0,.2-.2.2-.2h.4c0,0,0,0,0,0h-.3c0,0,.2-.2.2-.2h.3c0,0,0,0,0,0h-.2s.2-.2.2-.2l1.9,2.5h0s.4,0,.4,0l-2.4-3.1-1.9,1.8-.7-1-2.7,2.6h.4c0,0,.2-.1.2-.1h.5c0,.1,0,0,0,0h-.4c0,0,.2-.2.2-.2h.6c0,.1,0,0,0,0h-.5c0,0,.2-.3.2-.3h.5c0,0,0,0,0,0h-.4c0,0,.2-.2.2-.2h.6c0,.1,0,0,0,0h-.5c0,0,.2-.3.2-.3h.6c0,.1,0,0,0,0h-.5c0,0,.2-.3.2-.3h.5c0,0,0,0,0,0h-.4c0,0,.2-.2.2-.2h.3c0,0,0,0,0,0h-.2s.3-.3.3-.3l1.8,2.4-1.1,1h.4c0,0,.1,0,.1,0h.6c0,.1,0,0,0,0h-.5c0,0,.2-.3.2-.3h.5c0,0,0,0,0,0h-.4c0,0,.2-.3.2-.3h.4c0,0,0,0,0,0h-.3c0,0,.2-.2.2-.2h.4c0,0,0,0,0,0h-.3c0,0,.3-.3.3-.3h.4c0,0,0,0,0,0h-.3c0,0,.2-.2.2-.2h.4c0,0,0,0,0,0h-.3c0,0,.2-.2.2-.2h.2s0,0,0,0h-.1s.1-.1.1-.1l2.1,2.7Z" fill="#9a6849"/>
    <path d="M20.1,17.6c0,.3-.2.4-.5.4-.3,0-.5-.3-.5-.6s.2-.4.5-.4c.3,0,.5.3.5.6Z" fill="#9a6849"/>
    <path d="M19.6,18.5c-.6-.1-1.1-.7-1.1-1.3s.5-1,1.1-.9c.6.1,1.1.7,1.1,1.3s-.5,1-1.1.9ZM19.6,16.7c-.4,0-.7.2-.7.6s.3.8.7.9c.4,0,.7-.2.7-.6s-.3-.8-.7-.9Z" fill="#9a6849"/>
    <g>
      <path d="M14,11.6c0-.2.1-.3.1-.4,0,0,0,0,0,0,0-.2,0-.3,0-.4,0-.1-.1-.2-.2-.3-.2-.2-.4-.3-.6-.3-.2,0-.4,0-.6,0,0,0-.2.1-.2.2,0,.1-.1.2-.1.4,0,0,0,0,0,0,0,.1,0,.3.1.5.1.3.3.7.4,1h0c.2.4.3.6.3.6,0,0,.2-.2.4-.5h0c.2-.3.4-.6.5-.8ZM13.2,11.5c-.3,0-.6-.4-.5-.7,0,0,0,0,0-.1,0,0,0,0,0,0,0-.2.3-.3.5-.3.2,0,.4.2.5.5,0,0,0,0,0,0,0,0,0,0,0,.1,0,.3-.3.5-.6.4Z" fill="#61483e"/>
      <path d="M14,11.6c0-.2.1-.3.1-.4,0,0,0,0,0,0,0-.2,0-.3,0-.4,0-.1-.1-.2-.2-.3-.2-.2-.4-.3-.6-.3-.2,0-.4,0-.6,0,0,0-.2.1-.2.2,0,.1-.1.2-.1.4,0,0,0,0,0,0,0,.1,0,.3.1.5.1.3.3.7.4,1h0c.2.4.3.6.3.6,0,0,.2-.2.4-.5h0c.2-.3.4-.6.5-.8ZM13.2,11.5c-.3,0-.6-.4-.5-.7,0,0,0,0,0-.1,0,0,0,0,0,0,0-.2.3-.3.5-.3.2,0,.4.2.5.5,0,0,0,0,0,0,0,0,0,0,0,.1,0,.3-.3.5-.6.4Z" fill="#61483e"/>
    </g>
    <polygon points="16.3 11.5 16.2 11.8 13.6 8.6 11 9.1 10.6 9 10.6 8.7 11 8.8 13.7 8.2 16.3 11.5" fill="#9a6849"/>
    <polygon points="21.2 10.7 21.2 11.1 20.3 11.4 18 14 16.9 12.6 16.2 11.8 16.3 11.5 17 12.3 17.9 13.4 20.1 11.1 21.2 10.7" fill="#9a6849"/>
    <polygon points="21.2 7.9 10.6 5.9 10.6 4.5 21.2 6.6 21.2 7.9" fill="#f0a65b"/>
  </g>
  <g opacity="0">
    <polygon points="31.9 9.2 31.9 9.2 31.9 4.5 31.9 4.5 31.9 4.5 21.2 6.6 21.2 10.7 21.2 11.1 21.2 19.5 21.2 20.4 21.2 27.5 21.2 27.5 21.2 27.5 31.9 25.4 31.9 9.4 31.9 9.2"/>
    <polygon points="0 11.3 0 12.2 0 27.5 10.6 25.5 10.6 24.1 10.6 15.8 10.6 14.8 10.6 13 10.6 11.8 10.6 9 10.6 8.7 10.6 5.9 10.6 4.5 0 6.6 0 11.3"/>
  </g>
</svg>